PathFileType	4	(x/y/z)	S10_BK_Cal_T01
DataRate	CameraRate	NumFrames	NumMarkers	Units	OrigDataRate	OrigDataStartFrame	OrigNumFrames
240	240	4	51	mm	240	2101	2400
Frame#	Time	Sternum			R.Acromium			L.Acromium			Top.Head			R.ASIS			L.ASIS			R.PSIS			L.PSIS			R.Great.Tro			L.Great.Tro			R.Iliac.Crest			L.Iliac.Crest			V.Sacral			R.Thigh.Upper.Post			R.Thigh.Lower.Ant			R.Thigh.Lower.Post			R.Thigh.Upper.Ant			R.Knee.Lat			R.Knee.Med			R.Shank.Upper.Post			R.Shank.Lower.Ant			R.Shank.Lower.Post			R.Shank.Upper.Ant			R.Ankle.Lat			R.Ankle.Med			R.Heel.Upper			R.Heel.Med			R.Heel.Lat			R.Toe.Lat			R.Toe.Med			R.Toe.Tip			L.Thigh.Upper.Post			L.Thigh.Lower.Ant			L.Thigh.Lower.Post			L.Thigh.Upper.Ant			L.Knee.Lat			L.Knee.Med			L.Shank.Upper.Post			L.Shank.Lower.Ant			L.Shank.Lower.Post			L.Shank.Upper.Ant			L.Ankle.Lat			L.Ankle.Med			L.Heel.Upper			L.Heel.Med			L.Heel.Lat			L.Toe.Lat			L.Toe.Med			L.Toe.Tip			Cervical.Spine			Back			
		X1	Y1	Z1	X2	Y2	Z2	X3	Y3	Z3	X4	Y4	Z4	X5	Y5	Z5	X6	Y6	Z6	X7	Y7	Z7	X8	Y8	Z8	X9	Y9	Z9	X10	Y10	Z10	X11	Y11	Z11	X12	Y12	Z12	X13	Y13	Z13	X14	Y14	Z14	X15	Y15	Z15	X16	Y16	Z16	X17	Y17	Z17	X18	Y18	Z18	X19	Y19	Z19	X20	Y20	Z20	X21	Y21	Z21	X22	Y22	Z22	X23	Y23	Z23	X24	Y24	Z24	X25	Y25	Z25	X26	Y26	Z26	X27	Y27	Z27	X28	Y28	Z28	X29	Y29	Z29	X30	Y30	Z30	X31	Y31	Z31	X32	Y32	Z32	X33	Y33	Z33	X34	Y34	Z34	X35	Y35	Z35	X36	Y36	Z36	X37	Y37	Z37	X38	Y38	Z38	X39	Y39	Z39	X40	Y40	Z40	X41	Y41	Z41	X42	Y42	Z42	X43	Y43	Z43	X44	Y44	Z44	X45	Y45	Z45	X46	Y46	Z46	X47	Y47	Z47	X48	Y48	Z48	X49	Y49	Z49	X50	Y50	Z50	X51	Y51	Z51	

2101	8.75	852.03	1241.4	310.5	726.78	1401.4	462.41	732.25	1430.6	155.12	727.02	1728.5	331.89	761.27	957.33	421.35	761.61	971.11	188.76	567.29	1022.4	338.06	575.67	1025.8	256.56	681.45	900.96	498.97	688.54	919.14	128.6	687.4	1057.2	465.56	711.58	1060.5	162.74	540.77	997.26	300.04	739.36	708.19	528.26	817.83	646.63	503.01	760.68	620.84	532.13	797.44	735.42	493.32	796.59	495.58	510.46	799.05	487.06	383.81	677.63	297.43	524.14	724.29	218.32	518.56	658.64	225.45	526.31	749.61	291.1	518.7	645.47	112.19	514.03	668.78	110.44	436.19	582.01	63.706	466.91	595.11	36.441	440.88	582.76	39.534	501.5	748.72	38.836	567.41	789.5	44.553	462.72	842.82	61.381	512.16	711.58	652.77	109.68	807.43	598.11	110.34	744.54	563.22	119.37	782.21	685.64	99.646	801.16	494.45	111.66	830.16	482.01	237.57	693.09	312.89	93.38	731.73	208.92	92.753	674.36	237.66	93.432	750.98	283.66	90.617	665.53	107.61	90.096	685.39	106.02	177.31	592.2	78.143	132.48	604.75	46.326	164.59	596.79	48.218	100.55	770.47	41.082	52.018	804.64	47.062	156.19	856.84	57.548	107.54	655.51	1466.6	318.73	572.3	1261.5	302.88
2102	8.7542	852.04	1241.4	310.5	726.79	1401.4	462.41	732.26	1430.6	155.12	727.06	1728.5	331.87	761.3	957.33	421.35	761.63	971.11	188.75	567.32	1022.4	338.06	575.7	1025.8	256.56	681.48	900.96	498.96	688.56	919.14	128.6	687.42	1057.2	465.58	711.6	1060.5	162.73	540.8	997.27	300.05	739.36	708.18	528.26	817.85	646.62	503	760.7	620.84	532.12	797.47	735.41	493.32	796.61	495.58	510.45	799.06	487.05	383.8	677.64	297.43	524.14	724.29	218.32	518.56	658.65	225.45	526.31	749.62	291.09	518.7	645.47	112.19	514.03	668.78	110.44	436.18	582.01	63.706	466.91	595.11	36.44	440.88	582.76	39.534	501.5	748.72	38.836	567.41	789.5	44.551	462.72	842.82	61.381	512.15	711.59	652.77	109.69	807.44	598.1	110.33	744.54	563.21	119.37	782.21	685.63	99.641	801.16	494.44	111.66	830.17	482.01	237.57	693.09	312.89	93.38	731.73	208.92	92.752	674.37	237.66	93.433	750.99	283.66	90.616	665.53	107.61	90.098	685.4	106.03	177.31	592.2	78.141	132.48	604.75	46.327	164.6	596.79	48.22	100.55	770.47	41.085	52.016	804.64	47.06	156.19	856.84	57.547	107.54	655.52	1466.6	318.73	572.32	1261.5	302.88
2103	8.7583	852.04	1241.4	310.5	726.8	1401.4	462.41	732.27	1430.6	155.12	727.11	1728.5	331.85	761.34	957.34	421.35	761.65	971.12	188.75	567.35	1022.4	338.07	575.72	1025.8	256.56	681.52	900.96	498.96	688.58	919.15	128.6	687.43	1057.2	465.59	711.61	1060.5	162.72	540.83	997.27	300.05	739.37	708.18	528.26	817.87	646.62	503	760.73	620.84	532.12	797.49	735.41	493.32	796.62	495.57	510.45	799.07	487.05	383.8	677.65	297.43	524.13	724.3	218.31	518.56	658.65	225.45	526.31	749.63	291.09	518.7	645.47	112.19	514.03	668.78	110.43	436.18	582.01	63.706	466.91	595.11	36.439	440.88	582.76	39.534	501.5	748.72	38.837	567.41	789.5	44.549	462.72	842.82	61.38	512.15	711.6	652.77	109.69	807.44	598.1	110.32	744.54	563.21	119.38	782.22	685.63	99.636	801.17	494.44	111.65	830.19	482.01	237.56	693.1	312.89	93.38	731.73	208.92	92.75	674.37	237.66	93.433	750.99	283.66	90.614	665.54	107.61	90.101	685.41	106.03	177.32	592.2	78.139	132.49	604.75	46.327	164.6	596.79	48.221	100.55	770.47	41.088	52.014	804.64	47.058	156.19	856.84	57.546	107.54	655.54	1466.6	318.73	572.34	1261.5	302.88
2104	8.7625	852.05	1241.4	310.49	726.8	1401.4	462.41	732.28	1430.6	155.12	727.16	1728.5	331.83	761.37	957.34	421.35	761.68	971.12	188.75	567.38	1022.4	338.07	575.74	1025.8	256.56	681.55	900.96	498.96	688.59	919.15	128.6	687.45	1057.2	465.59	711.62	1060.5	162.72	540.85	997.28	300.05	739.37	708.18	528.26	817.89	646.61	502.99	760.75	620.84	532.11	797.52	735.4	493.31	796.64	495.56	510.44	799.08	487.05	383.79	677.66	297.43	524.13	724.3	218.31	518.55	658.66	225.45	526.3	749.63	291.09	518.69	645.47	112.19	514.03	668.78	110.43	436.18	582.01	63.705	466.91	595.11	36.439	440.88	582.76	39.534	501.5	748.72	38.838	567.41	789.5	44.547	462.72	842.82	61.38	512.15	711.6	652.76	109.69	807.45	598.1	110.31	744.55	563.21	119.38	782.22	685.62	99.63	801.18	494.43	111.65	830.21	482	237.55	693.1	312.89	93.379	731.73	208.92	92.748	674.37	237.66	93.432	750.99	283.66	90.612	665.55	107.61	90.104	685.41	106.04	177.33	592.2	78.137	132.49	604.75	46.328	164.6	596.79	48.223	100.55	770.47	41.091	52.012	804.64	47.057	156.19	856.84	57.545	107.54	655.55	1466.6	318.73	572.36	1261.5	302.88
